<svg xmlns="http://www.w3.org/2000/svg" fill="none" viewBox="0 0 256 256" height="256" width="256"><rect width="256" height="256" rx="60" fill="#6700eb"/><g transform="translate(32, 32) scale(0.75)"><path fill="#F4F2ED" d="M87.90559999999999 127.9656c15.772533333333332 0 30.62773333333333 7.4130666666666665 40.11173333333333 20.0152L168.90133333333333 202.31333333333333c0.7727999999999999 1.0266666666666666 0.8893333333333333 2.405333333333303 0.3 3.5474666666666668l-23.5672 45.66026666666666c-1.1306666666666665 2.191733333333333 -4.1616 2.4485333333333332 -5.645866666666667 0.48L46.4584 127.9656h41.447199999999995ZM116.01173333333332 3.998613333333333 209.5421333333333 128.03466666666665H168.0944c-15.772533333333332 0 -30.628 -7.412799999999999 -40.111466666666665 -20.016L87.09866666666666 53.6872c-0.7725333333333333 -1.0269333333333333 -0.8890666666666666 -2.405333333333303 -0.2997333333333333 -3.5472l23.56693333333333 -45.661386666666665c1.1306666666666665 -2.19076 4.1616 -2.4484506666666666 5.645866666666667 -0.48Z" stroke-width="2.6667"></path></g></svg>