<svg version="1.1" xmlns="http://www.w3.org/2000/svg" xmlns:xlink="http://www.w3.org/1999/xlink" width="256" height="256" viewBox="0 0 268 268" style="enable-background:new 0 0 268 268;" xml:space="preserve"><g><rect width="268" height="268" rx="62.8125" fill="#F4F2ED"/><path fill="#0065FF" d="M219.5,43.3h-88.4c0,22.1,17.8,39.9,39.9,39.9l0,0h16.2V99c0,22.1,17.8,39.9,39.9,39.9V51.1 C227.2,46.8,223.7,43.3,219.5,43.3z"/><linearGradient id="df2ddfb06c429eb526bc6c87b3060145b0119fc2a4404726ed16bac4f687c69f" gradientUnits="userSpaceOnUse" x1="180.1101" y1="-660.3978" x2="142.4642" y2="-699.2208" gradientTransform="matrix(1 0 0 -1 0 -571.6043)"><stop  offset="0.18" style="stop-color:#0052cc"/><stop  offset="1" style="stop-color:#2684ff"/></linearGradient><path fill="url(#df2ddfb06c429eb526bc6c87b3060145b0119fc2a4404726ed16bac4f687c69f)" d="M174.5,88.6H85.8c0,22.1,17.8,39.9,39.9,39.9H142v16c0,22.1,17.8,39.9,39.9,39.9V96.5 C182.2,92.1,178.7,88.6,174.5,88.6z"/><linearGradient id="fe6a42d31b86c110df505f655d1c80126522accf1250eed5a78134a10a630ca3" gradientUnits="userSpaceOnUse" x1="137.5886" y1="-706.062" x2="94.057" y2="-748.3911" gradientTransform="matrix(1 0 0 -1 0 -571.6043)"><stop  offset="0.18" style="stop-color:#0052cc"/><stop  offset="1" style="stop-color:#2684ff"/></linearGradient><path fill="url(#fe6a42d31b86c110df505f655d1c80126522accf1250eed5a78134a10a630ca3)" d="M129.2,134.1H40.8c0,22.1,17.8,39.9,39.9,39.9H97v15.7c0,22.1,17.8,39.9,39.9,39.9v-87.9 C136.9,137.6,133.5,134.1,129.2,134.1z"/></g></svg>
