<svg version="1.1" xmlns="http://www.w3.org/2000/svg" xmlns:xlink="http://www.w3.org/1999/xlink" width="256" height="256" viewBox="0 0 268 268" style="enable-background:new 0 0 268 268;" xml:space="preserve"><g><linearGradient id="SVGID_1_" gradientUnits="userSpaceOnUse" x1="0.75" y1="863.95" x2="267.5453" y2="863.95" gradientTransform="matrix(1 0 0 1 0 -730)"><stop  offset="0" style="stop-color:#0065FF"/><stop  offset="1" style="stop-color:#0052CC"/></linearGradient><path vector-effect="non-scaling-stroke" fill="url(#SVGID_1_)" d="M184,267.2H84c-3.2,0-6.4,0-9.5,0c-2.7,0-5.4,0-8-0.1 c-5.9-0.1-11.7-0.6-17.5-1.5c-5.8-1-11.4-2.8-16.6-5.5c-10.5-5.4-19.1-13.9-24.5-24.5c-2.6-5.2-4.5-10.9-5.5-16.7 s-1.5-11.6-1.5-17.5c-0.1-2.7-0.1-5.4-0.1-8c0-3.2,0-6.4,0-9.6V84c0-3.2,0-6.4,0-9.6c0-2.7,0-5.4,0.1-8C1,60.5,1.5,54.7,2.4,48.9 c1-5.8,2.8-11.4,5.5-16.6c5.4-10.5,13.9-19.1,24.5-24.5C37.6,5.2,43.2,3.3,49,2.3s11.6-1.5,17.5-1.5c2.7-0.1,5.4-0.1,8-0.1 c3.2,0,6.4,0,9.5,0H184c3.2,0,6.4,0,9.5,0c2.7,0,5.4,0,8,0.1c5.9,0.1,11.7,0.6,17.5,1.5c5.8,1,11.4,2.8,16.6,5.5 c10.5,5.4,19.1,13.9,24.5,24.5c2.6,5.2,4.5,10.9,5.5,16.6c1,5.8,1.5,11.6,1.5,17.5c0.1,2.7,0.1,5.4,0.1,8v4v109.3v5.6 c0,2.7-0.1,5.4-0.1,8c-0.1,5.9-0.6,11.7-1.5,17.5c-1,5.8-2.8,11.4-5.5,16.6c-5.4,10.5-13.9,19.1-24.5,24.5 c-5.2,2.6-10.8,4.5-16.6,5.5c-5.8,1-11.6,1.5-17.5,1.5c-2.7,0.1-5.4,0.1-8,0.1L184,267.2L184,267.2z"/><path fill="#FFF" d="M219.5,43.3h-88.4c0,22.1,17.8,39.9,39.9,39.9l0,0h16.2V99c0,22.1,17.8,39.9,39.9,39.9V51.1 C227.2,46.8,223.7,43.3,219.5,43.3z"/><linearGradient id="SVGID_2_" gradientUnits="userSpaceOnUse" x1="180.1101" y1="-660.3978" x2="142.4642" y2="-699.2208" gradientTransform="matrix(1 0 0 -1 0 -571.6043)"><stop  offset="0.18" style="stop-color:#FFFFFF;stop-opacity:0.4"/><stop  offset="1" style="stop-color:#FFFFFF"/></linearGradient><path fill="url(#SVGID_2_)" d="M174.5,88.6H85.8c0,22.1,17.8,39.9,39.9,39.9H142v16c0,22.1,17.8,39.9,39.9,39.9V96.5 C182.2,92.1,178.7,88.6,174.5,88.6z"/><linearGradient id="SVGID_3_" gradientUnits="userSpaceOnUse" x1="137.5886" y1="-706.062" x2="94.057" y2="-748.3911" gradientTransform="matrix(1 0 0 -1 0 -571.6043)"><stop  offset="0.18" style="stop-color:#FFFFFF;stop-opacity:0.4"/><stop  offset="1" style="stop-color:#FFFFFF"/></linearGradient><path fill="url(#SVGID_3_)" d="M129.2,134.1H40.8c0,22.1,17.8,39.9,39.9,39.9H97v15.7c0,22.1,17.8,39.9,39.9,39.9v-87.9 C136.9,137.6,133.5,134.1,129.2,134.1z"/></g></svg>
